<?xml version="1.0" encoding="UTF-8"?>
<svg xmlns="http://www.w3.org/2000/svg" xmlns:xlink="http://www.w3.org/1999/xlink" xmlns:svgjs="http://svgjs.com/svgjs" version="1.1" width="512" height="512" x="0" y="0" viewBox="0 0 512 512" style="enable-background:new 0 0 512 512" xml:space="preserve" class="">
  <g>
<rect xmlns="http://www.w3.org/2000/svg" x="27.733" y="160" style="" width="456.533" height="317.867" fill="#2b3441" data-original="#f3f3f3" class=""/>
<path xmlns="http://www.w3.org/2000/svg" style="" d="M0,135.467v29.867c0,28.8,22.4,51.2,51.2,51.2s51.2-22.4,51.2-51.2v-29.867L0,135.467L0,135.467z" fill="#f05540" data-original="#f05540"/>
<path xmlns="http://www.w3.org/2000/svg" style="" d="M102.4,135.467v29.867c0,28.8,22.4,51.2,51.2,51.2s51.2-22.4,51.2-51.2v-29.867L102.4,135.467  L102.4,135.467z" fill="#ff0000" data-original="#ced6e0" class=""/>
<path xmlns="http://www.w3.org/2000/svg" style="" d="M204.8,135.467v29.867c0,28.8,22.4,51.2,51.2,51.2c28.8,0,51.2-22.4,51.2-51.2v-29.867L204.8,135.467  L204.8,135.467z" fill="#f05540" data-original="#f05540"/>
<path xmlns="http://www.w3.org/2000/svg" style="" d="M307.2,135.467v29.867c0,28.8,22.4,51.2,51.2,51.2c28.8,0,51.2-22.4,51.2-51.2v-29.867L307.2,135.467  L307.2,135.467z" fill="#ff0000" data-original="#ced6e0" class=""/>
<path xmlns="http://www.w3.org/2000/svg" style="" d="M409.6,135.467v29.867c0,28.8,22.4,51.2,51.2,51.2s51.2-22.4,51.2-51.2v-29.867L409.6,135.467  L409.6,135.467z" fill="#f05540" data-original="#f05540"/>
<polygon xmlns="http://www.w3.org/2000/svg" style="" points="102.4,135.467 140.8,62.933 65.067,62.933 0,135.467 " fill="#f3705a" data-original="#f3705a"/>
<polygon xmlns="http://www.w3.org/2000/svg" style="" points="204.8,135.467 217.6,62.933 140.8,62.933 102.4,135.467 " fill="#ff0000" data-original="#e8eae9" class=""/>
<polygon xmlns="http://www.w3.org/2000/svg" style="" points="307.2,135.467 294.4,62.933 217.6,62.933 204.8,135.467 " fill="#f3705a" data-original="#f3705a"/>
<polygon xmlns="http://www.w3.org/2000/svg" style="" points="409.6,135.467 371.2,62.933 294.4,62.933 307.2,135.467 " fill="#ff0000" data-original="#e8eae9" class=""/>
<polygon xmlns="http://www.w3.org/2000/svg" style="" points="512,135.467 446.933,62.933 371.2,62.933 409.6,135.467 " fill="#f3705a" data-original="#f3705a"/>
<g xmlns="http://www.w3.org/2000/svg">
	<rect x="65.067" style="" width="382.933" height="62.933" fill="#607fff" data-original="#415a6b" class=""/>
	<rect x="70.4" y="272" style="" width="153.6" height="205.867" fill="#607fff" data-original="#415a6b" class=""/>
	<rect x="264.533" y="272" style="" width="190.933" height="176" fill="#607fff" data-original="#415a6b" class=""/>
</g>
<rect xmlns="http://www.w3.org/2000/svg" x="285.867" y="293.333" style="" width="148.267" height="133.333" fill="#00e5ff" data-original="#8ad7f8" class=""/>
<g xmlns="http://www.w3.org/2000/svg">
	<path style="" d="M373.333,323.2L313.6,382.933c-3.2,3.2-7.467,3.2-9.6,0c-3.2-3.2-3.2-7.467,0-9.6l59.733-59.733   c3.2-3.2,7.467-3.2,9.6,0C376.533,315.733,376.533,320,373.333,323.2z" fill="#ffffff" data-original="#55c0eb" class=""/>
	<path style="" d="M381.867,350.933l-40.533,40.533c-3.2,3.2-7.467,3.2-9.6,0c-3.2-3.2-3.2-7.467,0-9.6l40.533-40.533   c3.2-3.2,7.467-3.2,9.6,0C385.067,343.467,385.067,348.8,381.867,350.933z" fill="#ffffff" data-original="#55c0eb" class=""/>
</g>
<rect xmlns="http://www.w3.org/2000/svg" y="477.867" style="" width="512" height="34.133" fill="#ff0000" data-original="#ced6e0" class=""/>















</g>
</svg>
