<?xml version="1.0" encoding="UTF-8"?>
<svg xmlns="http://www.w3.org/2000/svg" xmlns:xlink="http://www.w3.org/1999/xlink" xmlns:svgjs="http://svgjs.com/svgjs" version="1.1" width="512" height="512" x="0" y="0" viewBox="0 0 32 32" style="enable-background:new 0 0 512 512" xml:space="preserve" class="">
  <g>
    <linearGradient xmlns="http://www.w3.org/2000/svg" id="linear-gradient" gradientUnits="userSpaceOnUse" x1="4.729" x2="28.665" y1="36.547" y2="8.101">
      <stop stop-opacity="1" stop-color="#6f6f6f" offset="0"/>
      <stop stop-opacity="1" stop-color="#ff2727" offset="0.2863490902891727"/>
      <stop stop-opacity="1" stop-color="#ff0000" offset="0.8373080166903409"/>
    </linearGradient>
    <linearGradient xmlns="http://www.w3.org/2000/svg" xmlns:xlink="http://www.w3.org/1999/xlink" id="linear-gradient-2" x1="9.413" x2="33.348" xlink:href="#linear-gradient" y1="40.488" y2="12.042"/>
    <linearGradient xmlns="http://www.w3.org/2000/svg" xmlns:xlink="http://www.w3.org/1999/xlink" id="linear-gradient-3" x1="-2.275" x2="21.661" xlink:href="#linear-gradient" y1="30.653" y2="2.208"/>
    <circle xmlns="http://www.w3.org/2000/svg" cx="11.5" cy="28.5" fill="url(#linear-gradient)" r="2.5" data-original="url(#linear-gradient)" class=""/>
    <circle xmlns="http://www.w3.org/2000/svg" cx="19.5" cy="28.5" fill="url(#linear-gradient-2)" r="2.5" data-original="url(#linear-gradient-2)" class=""/>
    <path xmlns="http://www.w3.org/2000/svg" d="m9 20h14a1 1 0 0 0 .97-.757l3-12a1 1 0 0 0 -.97-1.243h-9v6.586l1.293-1.293a1 1 0 0 1 1.414 1.414l-3 3a1 1 0 0 1 -1.414 0l-3-3a1 1 0 0 1 1.414-1.414l1.293 1.293v-8.586a1 1 0 0 0 -2 0v2h-6.031l-1-4.229a1 1 0 0 0 -.969-.771h-3a1 1 0 0 0 0 2h2.208l3.592 15.256a3 3 0 0 0 1.2 5.744h15a1 1 0 0 0 0-2h-15a1 1 0 0 1 0-2z" fill="url(#linear-gradient-3)" data-original="url(#linear-gradient-3)" class=""/>
  </g>
</svg>
