<?xml version="1.0" encoding="UTF-8"?>
<svg xmlns="http://www.w3.org/2000/svg" xmlns:xlink="http://www.w3.org/1999/xlink" xmlns:svgjs="http://svgjs.com/svgjs" version="1.1" width="512" height="512" x="0" y="0" viewBox="0 0 32 32" style="enable-background:new 0 0 512 512" xml:space="preserve" class="">
  <g>
    <g xmlns="http://www.w3.org/2000/svg" fill="rgb(0,0,0)">
      <path d="m11.9 15.67c1.15.84 2.57 1.33 4.1 1.33 3.742 0 7-3.239 7-7 0-3.86-3.14-7-7-7s-7 3.14-7 7c0 2.33 1.14 4.4 2.9 5.67z" fill="#ff0000" data-original="#000000" class=""/>
      <path d="m22.16 16.55c-1.61 1.52-3.78 2.45-6.16 2.45s-4.55-.93-6.16-2.45c-4.07 2.2-6.84 6.51-6.84 11.45 0 .55.45 1 1 1h24c.55 0 1-.45 1-1 0-4.94-2.77-9.25-6.84-11.45z" fill="#ff0000" data-original="#000000" class=""/>
    </g>
  </g>
</svg>
